<svg width="22" height="22" viewBox="0 0 22 22" fill="none" xmlns="http://www.w3.org/2000/svg">
<path d="M11 0.5C16.799 0.5 21.5 5.20101 21.5 11C21.5 16.799 16.799 21.5 11 21.5C5.20101 21.5 0.5 16.799 0.5 11C0.5 5.20101 5.20101 0.5 11 0.5Z" fill="#2C2C2C"/>
<path d="M11 0.5C16.799 0.5 21.5 5.20101 21.5 11C21.5 16.799 16.799 21.5 11 21.5C5.20101 21.5 0.5 16.799 0.5 11C0.5 5.20101 5.20101 0.5 11 0.5Z" stroke="#2C2C2C" stroke-linecap="round"/>
<path d="M11 5.16666V16.8333M5.16669 11H16.8334" stroke="#F5F5F5" stroke-width="2" stroke-linecap="round" stroke-linejoin="round"/>
</svg>
